<svg id="visual" viewBox="0 0 900 600" width="900" height="600" xmlns="http://www.w3.org/2000/svg" xmlns:xlink="http://www.w3.org/1999/xlink" version="1.1"><rect x="0" y="0" width="900" height="600" fill="#042A3B"></rect><defs><linearGradient id="grad1_0" x1="33.3%" y1="100%" x2="100%" y2="0%"><stop offset="20%" stop-color="#2b9c96" stop-opacity="1"></stop><stop offset="80%" stop-color="#2b9c96" stop-opacity="1"></stop></linearGradient></defs><defs><linearGradient id="grad1_1" x1="33.3%" y1="100%" x2="100%" y2="0%"><stop offset="20%" stop-color="#2b9c96" stop-opacity="1"></stop><stop offset="80%" stop-color="#188b8d" stop-opacity="1"></stop></linearGradient></defs><defs><linearGradient id="grad1_2" x1="33.3%" y1="100%" x2="100%" y2="0%"><stop offset="20%" stop-color="#067982" stop-opacity="1"></stop><stop offset="80%" stop-color="#188b8d" stop-opacity="1"></stop></linearGradient></defs><defs><linearGradient id="grad1_3" x1="33.3%" y1="100%" x2="100%" y2="0%"><stop offset="20%" stop-color="#067982" stop-opacity="1"></stop><stop offset="80%" stop-color="#006976" stop-opacity="1"></stop></linearGradient></defs><defs><linearGradient id="grad1_4" x1="33.3%" y1="100%" x2="100%" y2="0%"><stop offset="20%" stop-color="#005868" stop-opacity="1"></stop><stop offset="80%" stop-color="#006976" stop-opacity="1"></stop></linearGradient></defs><defs><linearGradient id="grad1_5" x1="33.3%" y1="100%" x2="100%" y2="0%"><stop offset="20%" stop-color="#005868" stop-opacity="1"></stop><stop offset="80%" stop-color="#00485a" stop-opacity="1"></stop></linearGradient></defs><defs><linearGradient id="grad1_6" x1="33.3%" y1="100%" x2="100%" y2="0%"><stop offset="20%" stop-color="#02394b" stop-opacity="1"></stop><stop offset="80%" stop-color="#00485a" stop-opacity="1"></stop></linearGradient></defs><defs><linearGradient id="grad1_7" x1="33.3%" y1="100%" x2="100%" y2="0%"><stop offset="20%" stop-color="#02394b" stop-opacity="1"></stop><stop offset="80%" stop-color="#042a3b" stop-opacity="1"></stop></linearGradient></defs><defs><linearGradient id="grad2_0" x1="0%" y1="100%" x2="66.7%" y2="0%"><stop offset="20%" stop-color="#2b9c96" stop-opacity="1"></stop><stop offset="80%" stop-color="#2b9c96" stop-opacity="1"></stop></linearGradient></defs><defs><linearGradient id="grad2_1" x1="0%" y1="100%" x2="66.7%" y2="0%"><stop offset="20%" stop-color="#188b8d" stop-opacity="1"></stop><stop offset="80%" stop-color="#2b9c96" stop-opacity="1"></stop></linearGradient></defs><defs><linearGradient id="grad2_2" x1="0%" y1="100%" x2="66.7%" y2="0%"><stop offset="20%" stop-color="#188b8d" stop-opacity="1"></stop><stop offset="80%" stop-color="#067982" stop-opacity="1"></stop></linearGradient></defs><defs><linearGradient id="grad2_3" x1="0%" y1="100%" x2="66.7%" y2="0%"><stop offset="20%" stop-color="#006976" stop-opacity="1"></stop><stop offset="80%" stop-color="#067982" stop-opacity="1"></stop></linearGradient></defs><defs><linearGradient id="grad2_4" x1="0%" y1="100%" x2="66.7%" y2="0%"><stop offset="20%" stop-color="#006976" stop-opacity="1"></stop><stop offset="80%" stop-color="#005868" stop-opacity="1"></stop></linearGradient></defs><defs><linearGradient id="grad2_5" x1="0%" y1="100%" x2="66.7%" y2="0%"><stop offset="20%" stop-color="#00485a" stop-opacity="1"></stop><stop offset="80%" stop-color="#005868" stop-opacity="1"></stop></linearGradient></defs><defs><linearGradient id="grad2_6" x1="0%" y1="100%" x2="66.7%" y2="0%"><stop offset="20%" stop-color="#00485a" stop-opacity="1"></stop><stop offset="80%" stop-color="#02394b" stop-opacity="1"></stop></linearGradient></defs><defs><linearGradient id="grad2_7" x1="0%" y1="100%" x2="66.7%" y2="0%"><stop offset="20%" stop-color="#042a3b" stop-opacity="1"></stop><stop offset="80%" stop-color="#02394b" stop-opacity="1"></stop></linearGradient></defs><g transform="translate(900, 600)"><path d="M-324.5 0C-321 -16.5 -317.5 -33 -314.1 -49.7C-310.7 -66.4 -307.4 -83.3 -296.7 -96.4C-286.1 -109.5 -268.2 -118.8 -259.3 -132.1C-250.4 -145.4 -250.6 -162.6 -247.6 -179.9C-244.5 -197.1 -238.2 -214.5 -228.4 -228.4C-218.6 -242.3 -205.1 -252.8 -190.7 -262.5C-176.3 -272.2 -160.9 -281.1 -143 -280.7C-125.1 -280.3 -104.7 -270.6 -89 -273.9C-73.3 -277.2 -62.2 -293.6 -48.2 -304.2C-34.1 -314.8 -17.1 -319.7 0 -324.5L0 0Z" fill="#033143"></path><path d="M-283.9 0C-280.9 -14.5 -277.8 -28.9 -274.8 -43.5C-271.8 -58.1 -268.9 -72.9 -259.6 -84.4C-250.3 -95.8 -234.6 -104 -226.9 -115.6C-219.1 -127.2 -219.3 -142.3 -216.6 -157.4C-214 -172.5 -208.5 -187.7 -199.8 -199.8C-191.2 -212 -179.5 -221.2 -166.9 -229.7C-154.3 -238.2 -140.8 -245.9 -125.1 -245.6C-109.5 -245.2 -91.6 -236.7 -77.9 -239.7C-64.1 -242.6 -54.5 -256.9 -42.2 -266.2C-29.9 -275.5 -14.9 -279.7 0 -283.9L0 0Z" fill="#014052"></path><path d="M-243.4 0C-240.7 -12.4 -238.1 -24.8 -235.6 -37.3C-233 -49.8 -230.5 -62.5 -222.5 -72.3C-214.6 -82.1 -201.1 -89.1 -194.5 -99.1C-187.8 -109 -188 -121.9 -185.7 -134.9C-183.4 -147.9 -178.7 -160.9 -171.3 -171.3C-163.9 -181.7 -153.9 -189.6 -143.1 -196.9C-132.2 -204.2 -120.7 -210.8 -107.3 -210.5C-93.8 -210.2 -78.5 -202.9 -66.7 -205.4C-55 -207.9 -46.7 -220.2 -36.1 -228.2C-25.6 -236.1 -12.8 -239.7 0 -243.4L0 0Z" fill="#005061"></path><path d="M-202.8 0C-200.6 -10.3 -198.4 -20.7 -196.3 -31.1C-194.2 -41.5 -192.1 -52.1 -185.5 -60.3C-178.8 -68.4 -167.6 -74.3 -162.1 -82.6C-156.5 -90.9 -156.6 -101.6 -154.7 -112.4C-152.8 -123.2 -148.9 -134 -142.7 -142.7C-136.6 -151.5 -128.2 -158 -119.2 -164.1C-110.2 -170.1 -100.6 -175.7 -89.4 -175.4C-78.2 -175.2 -65.4 -169.1 -55.6 -171.2C-45.8 -173.3 -38.9 -183.5 -30.1 -190.1C-21.3 -196.8 -10.7 -199.8 0 -202.8L0 0Z" fill="#00606f"></path><path d="M-162.2 0C-160.5 -8.3 -158.7 -16.5 -157 -24.9C-155.3 -33.2 -153.7 -41.7 -148.4 -48.2C-143.1 -54.8 -134.1 -59.4 -129.6 -66.1C-125.2 -72.7 -125.3 -81.3 -123.8 -89.9C-122.3 -98.6 -119.1 -107.2 -114.2 -114.2C-109.3 -121.2 -102.6 -126.4 -95.4 -131.3C-88.2 -136.1 -80.5 -140.5 -71.5 -140.3C-62.6 -140.1 -52.4 -135.3 -44.5 -137C-36.6 -138.6 -31.1 -146.8 -24.1 -152.1C-17.1 -157.4 -8.5 -159.8 0 -162.2L0 0Z" fill="#00717c"></path><path d="M-121.7 0C-120.4 -6.2 -119.1 -12.4 -117.8 -18.7C-116.5 -24.9 -115.3 -31.2 -111.3 -36.2C-107.3 -41.1 -100.6 -44.6 -97.2 -49.5C-93.9 -54.5 -94 -61 -92.8 -67.4C-91.7 -73.9 -89.3 -80.4 -85.6 -85.6C-82 -90.9 -76.9 -94.8 -71.5 -98.4C-66.1 -102.1 -60.3 -105.4 -53.6 -105.3C-46.9 -105.1 -39.3 -101.5 -33.4 -102.7C-27.5 -104 -23.3 -110.1 -18.1 -114.1C-12.8 -118.1 -6.4 -119.9 0 -121.7L0 0Z" fill="#0f8287"></path><path d="M-81.1 0C-80.2 -4.1 -79.4 -8.3 -78.5 -12.4C-77.7 -16.6 -76.8 -20.8 -74.2 -24.1C-71.5 -27.4 -67 -29.7 -64.8 -33C-62.6 -36.3 -62.7 -40.6 -61.9 -45C-61.1 -49.3 -59.6 -53.6 -57.1 -57.1C-54.6 -60.6 -51.3 -63.2 -47.7 -65.6C-44.1 -68.1 -40.2 -70.3 -35.8 -70.2C-31.3 -70.1 -26.2 -67.6 -22.2 -68.5C-18.3 -69.3 -15.6 -73.4 -12 -76.1C-8.5 -78.7 -4.3 -79.9 0 -81.1L0 0Z" fill="#229391"></path><path d="M-40.6 0C-40.1 -2.1 -39.7 -4.1 -39.3 -6.2C-38.8 -8.3 -38.4 -10.4 -37.1 -12.1C-35.8 -13.7 -33.5 -14.9 -32.4 -16.5C-31.3 -18.2 -31.3 -20.3 -30.9 -22.5C-30.6 -24.6 -29.8 -26.8 -28.5 -28.5C-27.3 -30.3 -25.6 -31.6 -23.8 -32.8C-22 -34 -20.1 -35.1 -17.9 -35.1C-15.6 -35 -13.1 -33.8 -11.1 -34.2C-9.2 -34.7 -7.8 -36.7 -6 -38C-4.3 -39.4 -2.1 -40 0 -40.6L0 0Z" fill="#2b9c96"></path></g><g transform="translate(0, 0)"><path d="M324.5 0C321.2 17 318 34.1 310.1 49.1C302.3 64.2 290 77.3 282.5 91.8C275 106.3 272.3 122.3 262.8 133.9C253.4 145.6 237 152.9 227.3 165.2C217.7 177.5 214.7 194.7 205.1 205.1C195.5 215.4 179.2 218.7 169.9 233.8C160.5 248.9 158 275.6 146.6 287.8C135.3 300 115.1 297.6 98 301.5C80.8 305.4 66.6 315.6 50.8 320.5C34.9 325.4 17.5 324.9 0 324.5L0 0Z" fill="#033143"></path><path d="M283.9 0C281.1 14.9 278.2 29.8 271.4 43C264.5 56.2 253.7 67.6 247.2 80.3C240.6 93 238.3 107 230 117.2C221.7 127.4 207.4 133.8 198.9 144.5C190.5 155.3 187.8 170.4 179.4 179.4C171 188.5 156.8 191.4 148.6 204.6C140.4 217.8 138.2 241.2 128.3 251.8C118.4 262.5 100.7 260.4 85.7 263.8C70.7 267.2 58.3 276.2 44.4 280.4C30.6 284.7 15.3 284.3 0 283.9L0 0Z" fill="#014052"></path><path d="M243.4 0C240.9 12.8 238.5 25.5 232.6 36.8C226.7 48.1 217.5 57.9 211.8 68.8C206.2 79.7 204.3 91.7 197.1 100.4C190 109.2 177.8 114.7 170.5 123.9C163.2 133.1 161 146.1 153.8 153.8C146.6 161.5 134.4 164.1 127.4 175.4C120.4 186.6 118.5 206.7 110 215.8C101.5 225 86.4 223.2 73.5 226.1C60.6 229 49.9 236.7 38.1 240.4C26.2 244 13.1 243.7 0 243.4L0 0Z" fill="#005061"></path><path d="M202.8 0C200.8 10.6 198.7 21.3 193.8 30.7C188.9 40.1 181.2 48.3 176.5 57.4C171.9 66.4 170.2 76.4 164.3 83.7C158.3 91 148.1 95.5 142.1 103.2C136 110.9 134.2 121.7 128.2 128.2C122.2 134.6 112 136.7 106.2 146.1C100.3 155.5 98.7 172.3 91.6 179.9C84.6 187.5 72 186 61.2 188.4C50.5 190.9 41.6 197.3 31.7 200.3C21.8 203.4 10.9 203.1 0 202.8L0 0Z" fill="#00606f"></path><path d="M162.2 0C160.6 8.5 159 17 155.1 24.6C151.2 32.1 145 38.6 141.2 45.9C137.5 53.2 136.2 61.1 131.4 67C126.7 72.8 118.5 76.4 113.7 82.6C108.8 88.7 107.3 97.4 102.5 102.5C97.7 107.7 89.6 109.4 84.9 116.9C80.3 124.4 79 137.8 73.3 143.9C67.6 150 57.6 148.8 49 150.7C40.4 152.7 33.3 157.8 25.4 160.3C17.5 162.7 8.7 162.5 0 162.2L0 0Z" fill="#00717c"></path><path d="M121.7 0C120.5 6.4 119.2 12.8 116.3 18.4C113.4 24.1 108.7 29 105.9 34.4C103.1 39.9 102.1 45.9 98.6 50.2C95 54.6 88.9 57.3 85.3 61.9C81.6 66.5 80.5 73 76.9 76.9C73.3 80.8 67.2 82 63.7 87.7C60.2 93.3 59.2 103.4 55 107.9C50.7 112.5 43.2 111.6 36.7 113.1C30.3 114.5 25 118.4 19 120.2C13.1 122 6.6 121.9 0 121.7L0 0Z" fill="#0f8287"></path><path d="M81.1 0C80.3 4.3 79.5 8.5 77.5 12.3C75.6 16 72.5 19.3 70.6 22.9C68.7 26.6 68.1 30.6 65.7 33.5C63.3 36.4 59.3 38.2 56.8 41.3C54.4 44.4 53.7 48.7 51.3 51.3C48.9 53.8 44.8 54.7 42.5 58.5C40.1 62.2 39.5 68.9 36.7 71.9C33.8 75 28.8 74.4 24.5 75.4C20.2 76.3 16.6 78.9 12.7 80.1C8.7 81.3 4.4 81.2 0 81.1L0 0Z" fill="#229391"></path><path d="M40.6 0C40.2 2.1 39.7 4.3 38.8 6.1C37.8 8 36.2 9.7 35.3 11.5C34.4 13.3 34 15.3 32.9 16.7C31.7 18.2 29.6 19.1 28.4 20.6C27.2 22.2 26.8 24.3 25.6 25.6C24.4 26.9 22.4 27.3 21.2 29.2C20.1 31.1 19.7 34.5 18.3 36C16.9 37.5 14.4 37.2 12.2 37.7C10.1 38.2 8.3 39.5 6.3 40.1C4.4 40.7 2.2 40.6 0 40.6L0 0Z" fill="#2b9c96"></path></g></svg>