<svg id="visual" viewBox="0 0 900 600" width="900" height="600" xmlns="http://www.w3.org/2000/svg" xmlns:xlink="http://www.w3.org/1999/xlink" version="1.1"><rect x="0" y="0" width="900" height="600" fill="#042A3B"></rect><path d="M0 450L21.5 443.3C43 436.7 86 423.3 128.8 425.8C171.7 428.3 214.3 446.7 257.2 448.7C300 450.7 343 436.3 385.8 428.2C428.7 420 471.3 418 514.2 417.7C557 417.3 600 418.7 642.8 421.8C685.7 425 728.3 430 771.2 435.8C814 441.7 857 448.3 878.5 451.7L900 455L900 601L878.5 601C857 601 814 601 771.2 601C728.3 601 685.7 601 642.8 601C600 601 557 601 514.2 601C471.3 601 428.7 601 385.8 601C343 601 300 601 257.2 601C214.3 601 171.7 601 128.8 601C86 601 43 601 21.5 601L0 601Z" fill="#2b9c96"></path><path d="M0 472L21.5 466C43 460 86 448 128.8 450.7C171.7 453.3 214.3 470.7 257.2 480C300 489.3 343 490.7 385.8 490.5C428.7 490.3 471.3 488.7 514.2 484.2C557 479.7 600 472.3 642.8 469.5C685.7 466.7 728.3 468.3 771.2 464C814 459.7 857 449.3 878.5 444.2L900 439L900 601L878.5 601C857 601 814 601 771.2 601C728.3 601 685.7 601 642.8 601C600 601 557 601 514.2 601C471.3 601 428.7 601 385.8 601C343 601 300 601 257.2 601C214.3 601 171.7 601 128.8 601C86 601 43 601 21.5 601L0 601Z" fill="#20847f"></path><path d="M0 513L21.5 506.5C43 500 86 487 128.8 489.3C171.7 491.7 214.3 509.3 257.2 514.3C300 519.3 343 511.7 385.8 511.3C428.7 511 471.3 518 514.2 512.7C557 507.3 600 489.7 642.8 480.8C685.7 472 728.3 472 771.2 475C814 478 857 484 878.5 487L900 490L900 601L878.5 601C857 601 814 601 771.2 601C728.3 601 685.7 601 642.8 601C600 601 557 601 514.2 601C471.3 601 428.7 601 385.8 601C343 601 300 601 257.2 601C214.3 601 171.7 601 128.8 601C86 601 43 601 21.5 601L0 601Z" fill="#146d68"></path><path d="M0 552L21.5 552.3C43 552.7 86 553.3 128.8 550.5C171.7 547.7 214.3 541.3 257.2 537.2C300 533 343 531 385.8 530.5C428.7 530 471.3 531 514.2 533C557 535 600 538 642.8 541C685.7 544 728.3 547 771.2 541.7C814 536.3 857 522.7 878.5 515.8L900 509L900 601L878.5 601C857 601 814 601 771.2 601C728.3 601 685.7 601 642.8 601C600 601 557 601 514.2 601C471.3 601 428.7 601 385.8 601C343 601 300 601 257.2 601C214.3 601 171.7 601 128.8 601C86 601 43 601 21.5 601L0 601Z" fill="#085753"></path><path d="M0 563L21.5 564.5C43 566 86 569 128.8 571.3C171.7 573.7 214.3 575.3 257.2 576C300 576.7 343 576.3 385.8 570C428.7 563.7 471.3 551.3 514.2 545.7C557 540 600 541 642.8 545C685.7 549 728.3 556 771.2 562C814 568 857 573 878.5 575.5L900 578L900 601L878.5 601C857 601 814 601 771.2 601C728.3 601 685.7 601 642.8 601C600 601 557 601 514.2 601C471.3 601 428.7 601 385.8 601C343 601 300 601 257.2 601C214.3 601 171.7 601 128.8 601C86 601 43 601 21.5 601L0 601Z" fill="#00413e"></path></svg>