<svg id="visual" viewBox="0 0 900 600" width="900" height="600" xmlns="http://www.w3.org/2000/svg" xmlns:xlink="http://www.w3.org/1999/xlink" version="1.1"><rect x="0" y="0" width="900" height="600" fill="#042A3B"></rect><path d="M0 379L39 379L39 341L78 341L78 336L117 336L117 334L157 334L157 356L196 356L196 338L235 338L235 343L274 343L274 386L313 386L313 378L352 378L352 335L391 335L391 337L430 337L430 389L470 389L470 342L509 342L509 348L548 348L548 346L587 346L587 367L626 367L626 360L665 360L665 389L704 389L704 382L743 382L743 361L783 361L783 340L822 340L822 347L861 347L861 351L900 351L900 374L900 601L900 601L861 601L861 601L822 601L822 601L783 601L783 601L743 601L743 601L704 601L704 601L665 601L665 601L626 601L626 601L587 601L587 601L548 601L548 601L509 601L509 601L470 601L470 601L430 601L430 601L391 601L391 601L352 601L352 601L313 601L313 601L274 601L274 601L235 601L235 601L196 601L196 601L157 601L157 601L117 601L117 601L78 601L78 601L39 601L39 601L0 601Z" fill="#042a3b"></path><path d="M0 396L39 396L39 382L78 382L78 359L117 359L117 357L157 357L157 403L196 403L196 399L235 399L235 396L274 396L274 391L313 391L313 354L352 354L352 356L391 356L391 359L430 359L430 399L470 399L470 392L509 392L509 353L548 353L548 351L587 351L587 377L626 377L626 378L665 378L665 400L704 400L704 353L743 353L743 368L783 368L783 391L822 391L822 384L861 384L861 362L900 362L900 373L900 601L900 601L861 601L861 601L822 601L822 601L783 601L783 601L743 601L743 601L704 601L704 601L665 601L665 601L626 601L626 601L587 601L587 601L548 601L548 601L509 601L509 601L470 601L470 601L430 601L430 601L391 601L391 601L352 601L352 601L313 601L313 601L274 601L274 601L235 601L235 601L196 601L196 601L157 601L157 601L117 601L117 601L78 601L78 601L39 601L39 601L0 601Z" fill="#043345"></path><path d="M0 392L39 392L39 376L78 376L78 425L117 425L117 416L157 416L157 415L196 415L196 419L235 419L235 426L274 426L274 415L313 415L313 377L352 377L352 381L391 381L391 384L430 384L430 408L470 408L470 425L509 425L509 378L548 378L548 395L587 395L587 416L626 416L626 376L665 376L665 394L704 394L704 404L743 404L743 380L783 380L783 400L822 400L822 380L861 380L861 402L900 402L900 410L900 601L900 601L861 601L861 601L822 601L822 601L783 601L783 601L743 601L743 601L704 601L704 601L665 601L665 601L626 601L626 601L587 601L587 601L548 601L548 601L509 601L509 601L470 601L470 601L430 601L430 601L391 601L391 601L352 601L352 601L313 601L313 601L274 601L274 601L235 601L235 601L196 601L196 601L157 601L157 601L117 601L117 601L78 601L78 601L39 601L39 601L0 601Z" fill="#033d4f"></path><path d="M0 423L39 423L39 397L78 397L78 424L117 424L117 396L157 396L157 433L196 433L196 416L235 416L235 402L274 402L274 398L313 398L313 410L352 410L352 419L391 419L391 443L430 443L430 428L470 428L470 436L509 436L509 402L548 402L548 407L587 407L587 442L626 442L626 416L665 416L665 430L704 430L704 398L743 398L743 397L783 397L783 416L822 416L822 432L861 432L861 415L900 415L900 432L900 601L900 601L861 601L861 601L822 601L822 601L783 601L783 601L743 601L743 601L704 601L704 601L665 601L665 601L626 601L626 601L587 601L587 601L548 601L548 601L509 601L509 601L470 601L470 601L430 601L430 601L391 601L391 601L352 601L352 601L313 601L313 601L274 601L274 601L235 601L235 601L196 601L196 601L157 601L157 601L117 601L117 601L78 601L78 601L39 601L39 601L0 601Z" fill="#014758"></path><path d="M0 446L39 446L39 437L78 437L78 425L117 425L117 426L157 426L157 434L196 434L196 462L235 462L235 426L274 426L274 424L313 424L313 446L352 446L352 430L391 430L391 419L430 419L430 429L470 429L470 461L509 461L509 432L548 432L548 417L587 417L587 447L626 447L626 432L665 432L665 436L704 436L704 415L743 415L743 417L783 417L783 434L822 434L822 434L861 434L861 439L900 439L900 430L900 601L900 601L861 601L861 601L822 601L822 601L783 601L783 601L743 601L743 601L704 601L704 601L665 601L665 601L626 601L626 601L587 601L587 601L548 601L548 601L509 601L509 601L470 601L470 601L430 601L430 601L391 601L391 601L352 601L352 601L313 601L313 601L274 601L274 601L235 601L235 601L196 601L196 601L157 601L157 601L117 601L117 601L78 601L78 601L39 601L39 601L0 601Z" fill="#005162"></path><path d="M0 462L39 462L39 462L78 462L78 437L117 437L117 468L157 468L157 478L196 478L196 436L235 436L235 464L274 464L274 444L313 444L313 460L352 460L352 452L391 452L391 477L430 477L430 449L470 449L470 449L509 449L509 476L548 476L548 475L587 475L587 453L626 453L626 438L665 438L665 456L704 456L704 467L743 467L743 462L783 462L783 446L822 446L822 473L861 473L861 456L900 456L900 465L900 601L900 601L861 601L861 601L822 601L822 601L783 601L783 601L743 601L743 601L704 601L704 601L665 601L665 601L626 601L626 601L587 601L587 601L548 601L548 601L509 601L509 601L470 601L470 601L430 601L430 601L391 601L391 601L352 601L352 601L313 601L313 601L274 601L274 601L235 601L235 601L196 601L196 601L157 601L157 601L117 601L117 601L78 601L78 601L39 601L39 601L0 601Z" fill="#005b6b"></path><path d="M0 459L39 459L39 486L78 486L78 474L117 474L117 476L157 476L157 484L196 484L196 496L235 496L235 482L274 482L274 472L313 472L313 497L352 497L352 480L391 480L391 479L430 479L430 496L470 496L470 478L509 478L509 461L548 461L548 475L587 475L587 497L626 497L626 466L665 466L665 475L704 475L704 463L743 463L743 492L783 492L783 479L822 479L822 471L861 471L861 476L900 476L900 464L900 601L900 601L861 601L861 601L822 601L822 601L783 601L783 601L743 601L743 601L704 601L704 601L665 601L665 601L626 601L626 601L587 601L587 601L548 601L548 601L509 601L509 601L470 601L470 601L430 601L430 601L391 601L391 601L352 601L352 601L313 601L313 601L274 601L274 601L235 601L235 601L196 601L196 601L157 601L157 601L117 601L117 601L78 601L78 601L39 601L39 601L0 601Z" fill="#006573"></path><path d="M0 501L39 501L39 487L78 487L78 485L117 485L117 488L157 488L157 515L196 515L196 502L235 502L235 513L274 513L274 515L313 515L313 508L352 508L352 497L391 497L391 494L430 494L430 484L470 484L470 484L509 484L509 486L548 486L548 510L587 510L587 515L626 515L626 501L665 501L665 489L704 489L704 510L743 510L743 506L783 506L783 506L822 506L822 498L861 498L861 503L900 503L900 506L900 601L900 601L861 601L861 601L822 601L822 601L783 601L783 601L743 601L743 601L704 601L704 601L665 601L665 601L626 601L626 601L587 601L587 601L548 601L548 601L509 601L509 601L470 601L470 601L430 601L430 601L391 601L391 601L352 601L352 601L313 601L313 601L274 601L274 601L235 601L235 601L196 601L196 601L157 601L157 601L117 601L117 601L78 601L78 601L39 601L39 601L0 601Z" fill="#03707b"></path><path d="M0 516L39 516L39 532L78 532L78 513L117 513L117 518L157 518L157 526L196 526L196 527L235 527L235 533L274 533L274 532L313 532L313 526L352 526L352 531L391 531L391 523L430 523L430 515L470 515L470 531L509 531L509 516L548 516L548 511L587 511L587 509L626 509L626 528L665 528L665 515L704 515L704 511L743 511L743 506L783 506L783 518L822 518L822 523L861 523L861 527L900 527L900 532L900 601L900 601L861 601L861 601L822 601L822 601L783 601L783 601L743 601L743 601L704 601L704 601L665 601L665 601L626 601L626 601L587 601L587 601L548 601L548 601L509 601L509 601L470 601L470 601L430 601L430 601L391 601L391 601L352 601L352 601L313 601L313 601L274 601L274 601L235 601L235 601L196 601L196 601L157 601L157 601L117 601L117 601L78 601L78 601L39 601L39 601L0 601Z" fill="#0a7b83"></path><path d="M0 541L39 541L39 550L78 550L78 539L117 539L117 522L157 522L157 546L196 546L196 532L235 532L235 543L274 543L274 543L313 543L313 525L352 525L352 542L391 542L391 542L430 542L430 522L470 522L470 531L509 531L509 546L548 546L548 542L587 542L587 535L626 535L626 523L665 523L665 525L704 525L704 546L743 546L743 545L783 545L783 532L822 532L822 544L861 544L861 530L900 530L900 551L900 601L900 601L861 601L861 601L822 601L822 601L783 601L783 601L743 601L743 601L704 601L704 601L665 601L665 601L626 601L626 601L587 601L587 601L548 601L548 601L509 601L509 601L470 601L470 601L430 601L430 601L391 601L391 601L352 601L352 601L313 601L313 601L274 601L274 601L235 601L235 601L196 601L196 601L157 601L157 601L117 601L117 601L78 601L78 601L39 601L39 601L0 601Z" fill="#14868a"></path><path d="M0 564L39 564L39 552L78 552L78 543L117 543L117 543L157 543L157 568L196 568L196 553L235 553L235 553L274 553L274 564L313 564L313 558L352 558L352 547L391 547L391 552L430 552L430 565L470 565L470 565L509 565L509 556L548 556L548 568L587 568L587 563L626 563L626 543L665 543L665 549L704 549L704 564L743 564L743 569L783 569L783 565L822 565L822 558L861 558L861 561L900 561L900 567L900 601L900 601L861 601L861 601L822 601L822 601L783 601L783 601L743 601L743 601L704 601L704 601L665 601L665 601L626 601L626 601L587 601L587 601L548 601L548 601L509 601L509 601L470 601L470 601L430 601L430 601L391 601L391 601L352 601L352 601L313 601L313 601L274 601L274 601L235 601L235 601L196 601L196 601L157 601L157 601L117 601L117 601L78 601L78 601L39 601L39 601L0 601Z" fill="#1f9190"></path><path d="M0 566L39 566L39 570L78 570L78 585L117 585L117 582L157 582L157 577L196 577L196 569L235 569L235 581L274 581L274 582L313 582L313 576L352 576L352 574L391 574L391 582L430 582L430 565L470 565L470 571L509 571L509 585L548 585L548 569L587 569L587 576L626 576L626 566L665 566L665 584L704 584L704 581L743 581L743 576L783 576L783 567L822 567L822 582L861 582L861 569L900 569L900 576L900 601L900 601L861 601L861 601L822 601L822 601L783 601L783 601L743 601L743 601L704 601L704 601L665 601L665 601L626 601L626 601L587 601L587 601L548 601L548 601L509 601L509 601L470 601L470 601L430 601L430 601L391 601L391 601L352 601L352 601L313 601L313 601L274 601L274 601L235 601L235 601L196 601L196 601L157 601L157 601L117 601L117 601L78 601L78 601L39 601L39 601L0 601Z" fill="#2b9c96"></path></svg>