<svg id="visual" viewBox="0 0 900 600" width="900" height="600" xmlns="http://www.w3.org/2000/svg" xmlns:xlink="http://www.w3.org/1999/xlink" version="1.1"><path d="M0 85L30 84C60 83 120 81 180 81C240 81 300 83 360 83C420 83 480 81 540 76C600 71 660 63 720 65C780 67 840 79 870 85L900 91L900 0L870 0C840 0 780 0 720 0C660 0 600 0 540 0C480 0 420 0 360 0C300 0 240 0 180 0C120 0 60 0 30 0L0 0Z" fill="#042a3b"></path><path d="M0 199L30 198C60 197 120 195 180 198C240 201 300 209 360 204C420 199 480 181 540 174C600 167 660 171 720 180C780 189 840 203 870 210L900 217L900 89L870 83C840 77 780 65 720 63C660 61 600 69 540 74C480 79 420 81 360 81C300 81 240 79 180 79C120 79 60 81 30 82L0 83Z" fill="#043345"></path><path d="M0 223L30 222C60 221 120 219 180 221C240 223 300 229 360 224C420 219 480 203 540 197C600 191 660 195 720 205C780 215 840 231 870 239L900 247L900 215L870 208C840 201 780 187 720 178C660 169 600 165 540 172C480 179 420 197 360 202C300 207 240 199 180 196C120 193 60 195 30 196L0 197Z" fill="#033d4f"></path><path d="M0 247L30 246C60 245 120 243 180 244C240 245 300 249 360 243C420 237 480 221 540 216C600 211 660 217 720 228C780 239 840 255 870 263L900 271L900 245L870 237C840 229 780 213 720 203C660 193 600 189 540 195C480 201 420 217 360 222C300 227 240 221 180 219C120 217 60 219 30 220L0 221Z" fill="#014758"></path><path d="M0 343L30 349C60 355 120 367 180 371C240 375 300 371 360 363C420 355 480 343 540 344C600 345 660 359 720 364C780 369 840 365 870 363L900 361L900 269L870 261C840 253 780 237 720 226C660 215 600 209 540 214C480 219 420 235 360 241C300 247 240 243 180 242C120 241 60 243 30 244L0 245Z" fill="#005162"></path><path d="M0 373L30 377C60 381 120 389 180 392C240 395 300 393 360 386C420 379 480 367 540 367C600 367 660 379 720 384C780 389 840 387 870 386L900 385L900 359L870 361C840 363 780 367 720 362C660 357 600 343 540 342C480 341 420 353 360 361C300 369 240 373 180 369C120 365 60 353 30 347L0 341Z" fill="#005b6b"></path><path d="M0 397L30 402C60 407 120 417 180 419C240 421 300 415 360 406C420 397 480 385 540 385C600 385 660 397 720 403C780 409 840 409 870 409L900 409L900 383L870 384C840 385 780 387 720 382C660 377 600 365 540 365C480 365 420 377 360 384C300 391 240 393 180 390C120 387 60 379 30 375L0 371Z" fill="#006573"></path><path d="M0 445L30 447C60 449 120 453 180 452C240 451 300 445 360 441C420 437 480 435 540 438C600 441 660 449 720 450C780 451 840 445 870 442L900 439L900 407L870 407C840 407 780 407 720 401C660 395 600 383 540 383C480 383 420 395 360 404C300 413 240 419 180 417C120 415 60 405 30 400L0 395Z" fill="#03707b"></path><path d="M0 481L30 484C60 487 120 493 180 492C240 491 300 483 360 478C420 473 480 471 540 474C600 477 660 485 720 485C780 485 840 477 870 473L900 469L900 437L870 440C840 443 780 449 720 448C660 447 600 439 540 436C480 433 420 435 360 439C300 443 240 449 180 450C120 451 60 447 30 445L0 443Z" fill="#0a7b83"></path><path d="M0 529L30 529C60 529 120 529 180 527C240 525 300 521 360 518C420 515 480 513 540 516C600 519 660 527 720 528C780 529 840 523 870 520L900 517L900 467L870 471C840 475 780 483 720 483C660 483 600 475 540 472C480 469 420 471 360 476C300 481 240 489 180 490C120 491 60 485 30 482L0 479Z" fill="#14868a"></path><path d="M0 565L30 564C60 563 120 561 180 559C240 557 300 555 360 552C420 549 480 545 540 546C600 547 660 553 720 555C780 557 840 555 870 554L900 553L900 515L870 518C840 521 780 527 720 526C660 525 600 517 540 514C480 511 420 513 360 516C300 519 240 523 180 525C120 527 60 527 30 527L0 527Z" fill="#1f9190"></path><path d="M0 601L30 601C60 601 120 601 180 601C240 601 300 601 360 601C420 601 480 601 540 601C600 601 660 601 720 601C780 601 840 601 870 601L900 601L900 551L870 552C840 553 780 555 720 553C660 551 600 545 540 544C480 543 420 547 360 550C300 553 240 555 180 557C120 559 60 561 30 562L0 563Z" fill="#2b9c96"></path></svg>