<svg id="visual" viewBox="0 0 900 600" width="900" height="600" xmlns="http://www.w3.org/2000/svg" xmlns:xlink="http://www.w3.org/1999/xlink" version="1.1"><path d="M0 43L75 42C150 41 300 39 450 38C600 37 750 37 825 37L900 37L900 0L825 0C750 0 600 0 450 0C300 0 150 0 75 0L0 0Z" fill="#3baa9c"></path><path d="M0 151L75 149C150 147 300 143 450 141C600 139 750 139 825 139L900 139L900 35L825 35C750 35 600 35 450 36C300 37 150 39 75 40L0 41Z" fill="#2b9c96"></path><path d="M0 175L75 174C150 173 300 171 450 170C600 169 750 169 825 169L900 169L900 137L825 137C750 137 600 137 450 139C300 141 150 145 75 147L0 149Z" fill="#1d8f8f"></path><path d="M0 205L75 204C150 203 300 201 450 200C600 199 750 199 825 199L900 199L900 167L825 167C750 167 600 167 450 168C300 169 150 171 75 172L0 173Z" fill="#108187"></path><path d="M0 247L75 246C150 245 300 243 450 243C600 243 750 245 825 246L900 247L900 197L825 197C750 197 600 197 450 198C300 199 150 201 75 202L0 203Z" fill="#05747e"></path><path d="M0 319L75 317C150 315 300 311 450 310C600 309 750 311 825 312L900 313L900 245L825 244C750 243 600 241 450 241C300 241 150 243 75 244L0 245Z" fill="#006774"></path><path d="M0 349L75 348C150 347 300 345 450 344C600 343 750 343 825 343L900 343L900 311L825 310C750 309 600 307 450 308C300 309 150 313 75 315L0 317Z" fill="#005a6a"></path><path d="M0 373L75 372C150 371 300 369 450 368C600 367 750 367 825 367L900 367L900 341L825 341C750 341 600 341 450 342C300 343 150 345 75 346L0 347Z" fill="#004d5f"></path><path d="M0 427L75 426C150 425 300 423 450 422C600 421 750 421 825 421L900 421L900 365L825 365C750 365 600 365 450 366C300 367 150 369 75 370L0 371Z" fill="#024153"></path><path d="M0 451L75 450C150 449 300 447 450 446C600 445 750 445 825 445L900 445L900 419L825 419C750 419 600 419 450 420C300 421 150 423 75 424L0 425Z" fill="#033547"></path><path d="M0 577L75 577C150 577 300 577 450 577C600 577 750 577 825 577L900 577L900 443L825 443C750 443 600 443 450 444C300 445 150 447 75 448L0 449Z" fill="#042a3b"></path><path d="M0 601L75 601C150 601 300 601 450 601C600 601 750 601 825 601L900 601L900 575L825 575C750 575 600 575 450 575C300 575 150 575 75 575L0 575Z" fill="#041f2f"></path></svg>